<?xml version="1.0" encoding="UTF-8"?>
<svg width="512" height="309" viewBox="0 0 512 309"
    xmlns="http://www.w3.org/2000/svg">
    <path d="M120.81 80.561h96.568v7.676h-87.716v57.767h82.486v7.675h-82.486v63.423h88.722v7.675H120.81V80.561zm105.22 0h10.26l45.467 63.423L328.23 80.56 391.441 0l-72.107 120.821 51.761 74.45h-10.798l-46.775-67.675-46.887 67.675h-10.314l51.873-74.45-41.917-60.569zm118.898 7.676V80.56h110.048v7.676h-50.699v136.54h-8.852V88.237h-50.497zM0 80.56h11.073l152.58 228.323-63.09-84.107L9.826 109.86l-.198 115.311h-8.84L0 80.56zm454.084 134.796c-1.673 0-3.19-.6-4.552-1.673-1.362-1.199-2.08-2.536-2.08-4.21 0-1.546.718-2.883 2.08-4.083 1.362-1.2 2.879-1.873 4.552-1.873 1.673 0 3.19.674 4.552 1.873 1.361 1.2 2.079 2.537 2.079 4.083 0 1.674-.718 3.012-2.079 4.21-1.362 1.2-2.879 1.673-4.552 1.673zm19.639-68.131c-5.551 0-10.266-1.673-14.143-5.02-3.877-3.346-5.815-7.43-5.815-12.025 0-4.72 1.938-8.678 5.815-11.9 3.877-3.347 8.592-4.946 14.143-4.946 5.551 0 10.266 1.6 14.143 4.946 3.877 3.222 5.815 7.18 5.815 11.9 0 4.595-1.938 8.679-5.815 12.025-3.877 3.347-8.592 5.02-14.143 5.02zm0-7.675c2.908 0 5.418-.974 7.53-2.922 2.113-1.949 3.256-4.34 3.256-7.074 0-2.86-1.143-5.25-3.256-7.2-2.112-1.947-4.622-2.922-7.53-2.922-2.909 0-5.42.975-7.53 2.923-2.113 1.949-3.257 4.34-3.257 7.199 0 2.734 1.144 5.125 3.256 7.074 2.113 1.948 4.622 2.922 7.53 2.922zm46.693 7.675c-5.551 0-10.267-1.673-14.144-5.02-3.877-3.346-5.815-7.43-5.815-12.025 0-4.72 1.938-8.678 5.815-11.9 3.876-3.347 8.592-4.946 14.144-4.946 5.55 0 10.266 1.6 14.143 4.946 3.877 3.222 5.815 7.18 5.815 11.9 0 4.595-1.938 8.679-5.815 12.025-3.877 3.347-8.593 5.02-14.143 5.02zm0-7.675c2.908 0 5.417-.974 7.53-2.922 2.112-1.949 3.256-4.34 3.256-7.074 0-2.86-1.144-5.25-3.256-7.2-2.113-1.947-4.622-2.922-7.53-2.922-2.91 0-5.42.975-7.53 2.923-2.113 1.949-3.257 4.34-3.257 7.199 0 2.734 1.144 5.125 3.256 7.074 2.112 1.948 4.622 2.922 7.53 2.922z" fill="currentColor" fill-rule="nonzero"/>
</svg>
